<svg width="145" height="40" viewBox="0 0 145 40" fill="none" xmlns="http://www.w3.org/2000/svg">
<path d="M27.1875 7.46094C25.2575 5.23193 23.0852 3.22477 20.7109 1.47656C20.5008 1.32933 20.2504 1.25035 19.9937 1.25035C19.7371 1.25035 19.4867 1.32933 19.2766 1.47656C16.9066 3.2255 14.7386 5.23263 12.8125 7.46094C8.51719 12.3938 6.25 17.5938 6.25 22.5C6.25 26.1467 7.69866 29.6441 10.2773 32.2227C12.8559 34.8013 16.3533 36.25 20 36.25C23.6467 36.25 27.1441 34.8013 29.7227 32.2227C32.3013 29.6441 33.75 26.1467 33.75 22.5C33.75 17.5938 31.4828 12.3938 27.1875 7.46094ZM20 33.75C17.0173 33.7467 14.1578 32.5604 12.0487 30.4513C9.93964 28.3422 8.75331 25.4827 8.75 22.5C8.75 13.5578 17.4172 6.09375 20 4.0625C22.5828 6.09375 31.25 13.5547 31.25 22.5C31.2467 25.4827 30.0604 28.3422 27.9513 30.4513C25.8422 32.5604 22.9827 33.7467 20 33.75ZM28.7328 23.9594C28.4087 25.7699 27.5376 27.4376 26.2369 28.738C24.9363 30.0384 23.2684 30.9091 21.4578 31.2328C21.3891 31.2438 21.3196 31.2496 21.25 31.25C20.9364 31.2499 20.6344 31.132 20.4037 30.9196C20.173 30.7073 20.0306 30.416 20.0046 30.1035C19.9787 29.791 20.0711 29.4802 20.2636 29.2327C20.456 28.9851 20.7345 28.819 21.0437 28.7672C23.6328 28.3313 25.8297 26.1344 26.2687 23.5406C26.3243 23.2137 26.5074 22.9222 26.7779 22.7302C27.0483 22.5383 27.384 22.4617 27.7109 22.5172C28.0379 22.5727 28.3294 22.7559 28.5213 23.0263C28.7133 23.2968 28.7899 23.6324 28.7344 23.9594H28.7328Z" fill="#19A7CE"/>
<path d="M27.1875 7.46094C25.2575 5.23193 23.0852 3.22477 20.7109 1.47656C20.5008 1.32933 20.2504 1.25035 19.9937 1.25035C19.7371 1.25035 19.4867 1.32933 19.2766 1.47656C16.9066 3.2255 14.7386 5.23263 12.8125 7.46094C8.51719 12.3938 6.25 17.5938 6.25 22.5C6.25 26.1467 7.69866 29.6441 10.2773 32.2227C12.8559 34.8013 16.3533 36.25 20 36.25C23.6467 36.25 27.1441 34.8013 29.7227 32.2227C32.3013 29.6441 33.75 26.1467 33.75 22.5C33.75 17.5938 31.4828 12.3938 27.1875 7.46094ZM20 33.75C17.0173 33.7467 14.1578 32.5604 12.0487 30.4513C9.93964 28.3422 8.75331 25.4827 8.75 22.5C8.75 13.5578 17.4172 6.09375 20 4.0625C22.5828 6.09375 31.25 13.5547 31.25 22.5C31.2467 25.4827 30.0604 28.3422 27.9513 30.4513C25.8422 32.5604 22.9827 33.7467 20 33.75ZM28.7328 23.9594C28.4087 25.7699 27.5376 27.4376 26.2369 28.738C24.9363 30.0384 23.2684 30.9091 21.4578 31.2328C21.3891 31.2438 21.3196 31.2496 21.25 31.25C20.9364 31.2499 20.6344 31.132 20.4037 30.9196C20.173 30.7073 20.0306 30.416 20.0046 30.1035C19.9787 29.791 20.0711 29.4802 20.2636 29.2327C20.456 28.9851 20.7345 28.819 21.0437 28.7672C23.6328 28.3313 25.8297 26.1344 26.2687 23.5406C26.3243 23.2137 26.5074 22.9222 26.7779 22.7302C27.0483 22.5383 27.384 22.4617 27.7109 22.5172C28.0379 22.5727 28.3294 22.7559 28.5213 23.0263C28.7133 23.2968 28.7899 23.6324 28.7344 23.9594H28.7328Z" fill="black" fill-opacity="0.2"/>
<path d="M53.056 11.2H56.428L62.536 28H59.428L58.348 25.024H51.148L50.068 28H46.96L53.056 11.2ZM52.216 22.096H57.268L54.736 15.172L52.216 22.096ZM64.2681 16H67.1961V28H64.2681V16ZM65.7561 14.452C65.3241 14.452 64.9601 14.312 64.6641 14.032C64.3681 13.744 64.2201 13.384 64.2201 12.952C64.2201 12.528 64.3681 12.172 64.6641 11.884C64.9601 11.596 65.3201 11.452 65.7441 11.452C66.1681 11.452 66.5241 11.596 66.8121 11.884C67.1081 12.172 67.2561 12.528 67.2561 12.952C67.2561 13.384 67.1121 13.744 66.8241 14.032C66.5361 14.312 66.1801 14.452 65.7561 14.452ZM69.9989 28L69.9869 16H72.9149L72.9269 17.068C73.3349 16.636 73.8229 16.296 74.3909 16.048C74.9589 15.792 75.5709 15.664 76.2269 15.664C76.6669 15.664 77.1069 15.728 77.5469 15.856L76.3949 18.808C76.0909 18.688 75.7869 18.628 75.4829 18.628C75.0109 18.628 74.5789 18.744 74.1869 18.976C73.8029 19.2 73.4949 19.508 73.2629 19.9C73.0389 20.284 72.9269 20.712 72.9269 21.184V28H69.9989ZM84.8372 11.2H88.2093L94.3173 28H91.2093L90.1293 25.024H82.9293L81.8493 28H78.7413L84.8372 11.2ZM83.9973 22.096H89.0493L86.5173 15.172L83.9973 22.096ZM102.715 15.664C103.883 15.664 104.947 15.948 105.907 16.516C106.867 17.084 107.631 17.848 108.199 18.808C108.767 19.76 109.051 20.816 109.051 21.976C109.051 22.848 108.887 23.668 108.559 24.436C108.231 25.204 107.775 25.88 107.191 26.464C106.615 27.04 105.943 27.492 105.175 27.82C104.415 28.148 103.595 28.312 102.715 28.312C101.963 28.312 101.295 28.144 100.711 27.808C100.135 27.464 99.6506 27.02 99.2586 26.476V28H96.3306V10H99.2586V17.5C99.6506 16.956 100.135 16.516 100.711 16.18C101.295 15.836 101.963 15.664 102.715 15.664ZM102.679 25.48C103.303 25.48 103.867 25.324 104.371 25.012C104.883 24.692 105.291 24.268 105.595 23.74C105.899 23.212 106.051 22.624 106.051 21.976C106.051 21.336 105.899 20.752 105.595 20.224C105.291 19.688 104.883 19.264 104.371 18.952C103.859 18.64 103.295 18.484 102.679 18.484C102.071 18.484 101.527 18.644 101.047 18.964C100.567 19.276 100.191 19.7 99.9186 20.236C99.6466 20.764 99.5106 21.344 99.5106 21.976C99.5106 22.624 99.6466 23.216 99.9186 23.752C100.191 24.28 100.567 24.7 101.047 25.012C101.527 25.324 102.071 25.48 102.679 25.48ZM120.027 16H122.955V28H120.027L119.895 26.512C119.567 27.048 119.131 27.484 118.587 27.82C118.051 28.148 117.415 28.312 116.679 28.312C115.791 28.312 114.959 28.144 114.183 27.808C113.407 27.472 112.723 27.008 112.131 26.416C111.547 25.824 111.087 25.14 110.751 24.364C110.423 23.588 110.259 22.756 110.259 21.868C110.259 21.012 110.415 20.208 110.727 19.456C111.047 18.704 111.491 18.044 112.059 17.476C112.627 16.908 113.283 16.464 114.027 16.144C114.771 15.824 115.571 15.664 116.427 15.664C117.219 15.664 117.927 15.84 118.551 16.192C119.183 16.544 119.719 16.992 120.159 17.536L120.027 16ZM116.607 25.492C117.231 25.492 117.783 25.336 118.263 25.024C118.743 24.712 119.119 24.292 119.391 23.764C119.663 23.228 119.799 22.64 119.799 22C119.799 21.352 119.663 20.764 119.391 20.236C119.119 19.7 118.739 19.276 118.251 18.964C117.771 18.652 117.223 18.496 116.607 18.496C115.991 18.496 115.427 18.656 114.915 18.976C114.411 19.288 114.007 19.708 113.703 20.236C113.407 20.764 113.259 21.352 113.259 22C113.259 22.648 113.411 23.236 113.715 23.764C114.019 24.292 114.423 24.712 114.927 25.024C115.439 25.336 115.999 25.492 116.607 25.492ZM134.184 10H137.112V28H134.184V26.5C133.8 27.036 133.316 27.472 132.732 27.808C132.148 28.144 131.472 28.312 130.704 28.312C129.832 28.312 129.016 28.148 128.256 27.82C127.496 27.492 126.824 27.04 126.24 26.464C125.664 25.88 125.212 25.208 124.884 24.448C124.556 23.688 124.392 22.872 124.392 22C124.392 21.128 124.556 20.312 124.884 19.552C125.212 18.792 125.664 18.124 126.24 17.548C126.824 16.964 127.496 16.508 128.256 16.18C129.016 15.852 129.832 15.688 130.704 15.688C131.472 15.688 132.148 15.856 132.732 16.192C133.316 16.52 133.8 16.956 134.184 17.5V10ZM130.74 25.492C131.364 25.492 131.916 25.336 132.396 25.024C132.876 24.712 133.252 24.292 133.524 23.764C133.796 23.228 133.932 22.64 133.932 22C133.932 21.352 133.796 20.764 133.524 20.236C133.252 19.7 132.872 19.276 132.384 18.964C131.904 18.652 131.356 18.496 130.74 18.496C130.124 18.496 129.56 18.656 129.048 18.976C128.544 19.288 128.14 19.708 127.836 20.236C127.54 20.764 127.392 21.352 127.392 22C127.392 22.648 127.544 23.236 127.848 23.764C128.152 24.292 128.556 24.712 129.06 25.024C129.572 25.336 130.132 25.492 130.74 25.492ZM139.995 16H142.923V28H139.995V16ZM141.483 14.452C141.051 14.452 140.687 14.312 140.391 14.032C140.095 13.744 139.947 13.384 139.947 12.952C139.947 12.528 140.095 12.172 140.391 11.884C140.687 11.596 141.047 11.452 141.471 11.452C141.895 11.452 142.251 11.596 142.539 11.884C142.835 12.172 142.983 12.528 142.983 12.952C142.983 13.384 142.839 13.744 142.551 14.032C142.263 14.312 141.907 14.452 141.483 14.452Z" fill="#19A7CE"/>
</svg>
